<svg xmlns="http://www.w3.org/2000/svg" width="67.498" height="50.624" viewBox="0 0 67.498 50.624"><path d="M43.874,97.749h5.062a1.815,1.815,0,0,0,1.687-1.687V78.343a1.815,1.815,0,0,0-1.687-1.687H43.874a1.815,1.815,0,0,0-1.687,1.687V96.062A1.815,1.815,0,0,0,43.874,97.749Zm12.656,0h5.062a1.815,1.815,0,0,0,1.687-1.687V65.687A1.815,1.815,0,0,0,61.592,64H56.53a1.815,1.815,0,0,0-1.687,1.687V96.062A1.815,1.815,0,0,0,56.53,97.749Zm-37.968,0h5.062a1.815,1.815,0,0,0,1.687-1.687V86.781a1.815,1.815,0,0,0-1.687-1.687H18.562a1.815,1.815,0,0,0-1.687,1.687v9.281A1.815,1.815,0,0,0,18.562,97.749Zm12.656,0H36.28a1.815,1.815,0,0,0,1.687-1.687V69.906a1.815,1.815,0,0,0-1.687-1.687H31.218a1.815,1.815,0,0,0-1.687,1.687V96.062A1.815,1.815,0,0,0,31.218,97.749Zm34.171,8.437H8.437V66.109A2.109,2.109,0,0,0,6.328,64H2.109A2.109,2.109,0,0,0,0,66.109v44.3a4.219,4.219,0,0,0,4.219,4.219h61.17a2.109,2.109,0,0,0,2.109-2.109V108.3A2.109,2.109,0,0,0,65.389,106.187Z" transform="translate(0 -64)" fill="#9d59bf"/></svg>