<svg xmlns="http://www.w3.org/2000/svg" width="50.147" height="52.384" viewBox="0 0 50.147 52.384"><path d="M68.151,40.586l-4.5-2.6a20.343,20.343,0,0,0,0-7.414l4.5-2.6a1.276,1.276,0,0,0,.581-1.479,26.3,26.3,0,0,0-5.777-9.991,1.271,1.271,0,0,0-1.563-.243l-4.5,2.6a19.932,19.932,0,0,0-6.421-3.707V9.969a1.265,1.265,0,0,0-.993-1.236,26.55,26.55,0,0,0-11.533,0,1.265,1.265,0,0,0-.993,1.236v5.2a20.561,20.561,0,0,0-6.421,3.707l-4.489-2.6a1.255,1.255,0,0,0-1.563.243A26.146,26.146,0,0,0,18.7,26.507a1.263,1.263,0,0,0,.581,1.479l4.5,2.6a20.343,20.343,0,0,0,0,7.414l-4.5,2.6a1.276,1.276,0,0,0-.581,1.479,26.3,26.3,0,0,0,5.777,9.991,1.271,1.271,0,0,0,1.563.243l4.5-2.6a19.932,19.932,0,0,0,6.421,3.707v5.2a1.265,1.265,0,0,0,.993,1.236,26.55,26.55,0,0,0,11.533,0,1.265,1.265,0,0,0,.993-1.236v-5.2A20.56,20.56,0,0,0,56.9,49.711l4.5,2.6a1.255,1.255,0,0,0,1.563-.243,26.145,26.145,0,0,0,5.777-9.991A1.3,1.3,0,0,0,68.151,40.586ZM43.712,42.73a8.449,8.449,0,1,1,8.449-8.449A8.46,8.46,0,0,1,43.712,42.73Z" transform="translate(-18.644 -8.099)" fill="#9d59bf"/></svg>