<svg xmlns="http://www.w3.org/2000/svg" width="53.999" height="66.456" viewBox="0 0 53.999 66.456"><path d="M70,39.458A27,27,0,1,1,38.844,12.785V8.307H35.21a1.562,1.562,0,0,1-1.558-1.558V1.558A1.562,1.562,0,0,1,35.21,0H50.786a1.562,1.562,0,0,1,1.558,1.558V6.749a1.562,1.562,0,0,1-1.558,1.558H47.151v4.478a26.833,26.833,0,0,1,12.941,5.789L63.662,15a1.559,1.559,0,0,1,2.207,0l3.673,3.673a1.559,1.559,0,0,1,0,2.207L65.725,24.7l-.078.078A26.728,26.728,0,0,1,70,39.458ZM47.151,44.131V24.467a1.562,1.562,0,0,0-1.558-1.558H40.4a1.562,1.562,0,0,0-1.558,1.558V44.131A1.562,1.562,0,0,0,40.4,45.689h5.192A1.562,1.562,0,0,0,47.151,44.131Z" transform="translate(-16)" fill="#9d59bf"/></svg>